<mxfile host="app.diagrams.net" agent="Mozilla/5.0 (Windows NT 10.0; Win64; x64) AppleWebKit/537.36 (KHTML, like Gecko) Chrome/136.0.0.0 Safari/537.36 Edg/136.0.0.0" version="27.1.0">
  <diagram name="Page-1" id="e7e014a7-5840-1c2e-5031-d8a46d1fe8dd">
    <mxGraphModel grid="1" page="1" gridSize="10" guides="1" tooltips="1" connect="1" arrows="1" fold="1" pageScale="1" pageWidth="1169" pageHeight="826" background="none" math="0" shadow="0">
      <root>
        <mxCell id="0" />
        <mxCell id="1" parent="0" />
        <mxCell id="wCYUpBFyNO2nw9wWK0XW-50" value="&lt;h4 style=&quot;margin-top: 0px; padding-bottom: 0px; margin-bottom: 0px;&quot;&gt;&lt;br&gt;&lt;/h4&gt;" style="rounded=0;whiteSpace=wrap;html=1;gradientColor=none;fillColor=none;align=left;" vertex="1" parent="1">
          <mxGeometry x="110" y="50" width="700" height="730" as="geometry" />
        </mxCell>
        <mxCell id="oKkLIn8GN4764wAvx9i3-14" style="rounded=0;orthogonalLoop=1;jettySize=auto;html=1;exitX=0.5;exitY=0.5;exitDx=0;exitDy=0;exitPerimeter=0;entryX=0;entryY=0.5;entryDx=0;entryDy=0;" edge="1" parent="1" source="wCYUpBFyNO2nw9wWK0XW-41" target="wCYUpBFyNO2nw9wWK0XW-55">
          <mxGeometry relative="1" as="geometry" />
        </mxCell>
        <mxCell id="wCYUpBFyNO2nw9wWK0XW-41" value="Caixa&lt;div&gt;&lt;br&gt;&lt;/div&gt;" style="shape=umlActor;verticalLabelPosition=bottom;verticalAlign=top;html=1;" vertex="1" parent="1">
          <mxGeometry x="30" y="125" width="30" height="60" as="geometry" />
        </mxCell>
        <mxCell id="oKkLIn8GN4764wAvx9i3-15" style="rounded=0;orthogonalLoop=1;jettySize=auto;html=1;exitX=0.5;exitY=0.5;exitDx=0;exitDy=0;exitPerimeter=0;" edge="1" parent="1" source="wCYUpBFyNO2nw9wWK0XW-49" target="wCYUpBFyNO2nw9wWK0XW-55">
          <mxGeometry relative="1" as="geometry" />
        </mxCell>
        <mxCell id="oKkLIn8GN4764wAvx9i3-16" style="rounded=0;orthogonalLoop=1;jettySize=auto;html=1;exitX=0.5;exitY=0.5;exitDx=0;exitDy=0;exitPerimeter=0;entryX=0;entryY=0.5;entryDx=0;entryDy=0;" edge="1" parent="1" source="wCYUpBFyNO2nw9wWK0XW-49" target="KTwk-XYR9jKI6FYCV8iE-15">
          <mxGeometry relative="1" as="geometry" />
        </mxCell>
        <mxCell id="oKkLIn8GN4764wAvx9i3-17" style="rounded=0;orthogonalLoop=1;jettySize=auto;html=1;exitX=0.5;exitY=0.5;exitDx=0;exitDy=0;exitPerimeter=0;entryX=0;entryY=0.5;entryDx=0;entryDy=0;" edge="1" parent="1" source="wCYUpBFyNO2nw9wWK0XW-49" target="KTwk-XYR9jKI6FYCV8iE-14">
          <mxGeometry relative="1" as="geometry" />
        </mxCell>
        <mxCell id="oKkLIn8GN4764wAvx9i3-18" style="rounded=0;orthogonalLoop=1;jettySize=auto;html=1;exitX=0.5;exitY=0.5;exitDx=0;exitDy=0;exitPerimeter=0;entryX=0;entryY=0.5;entryDx=0;entryDy=0;" edge="1" parent="1" source="wCYUpBFyNO2nw9wWK0XW-49" target="KTwk-XYR9jKI6FYCV8iE-16">
          <mxGeometry relative="1" as="geometry" />
        </mxCell>
        <mxCell id="wCYUpBFyNO2nw9wWK0XW-49" value="Gerente" style="shape=umlActor;verticalLabelPosition=bottom;verticalAlign=top;html=1;" vertex="1" parent="1">
          <mxGeometry x="30" y="280" width="30" height="60" as="geometry" />
        </mxCell>
        <mxCell id="wCYUpBFyNO2nw9wWK0XW-51" value="&lt;font style=&quot;font-size: 18px;&quot;&gt;Sistema de Supermercado&lt;/font&gt;" style="text;html=1;align=center;verticalAlign=middle;whiteSpace=wrap;rounded=0;fontStyle=1;fontSize=13;strokeColor=default;" vertex="1" parent="1">
          <mxGeometry x="110" y="50" width="700" height="30" as="geometry" />
        </mxCell>
        <mxCell id="wCYUpBFyNO2nw9wWK0XW-55" value="Login/Logout" style="ellipse;whiteSpace=wrap;html=1;fontSize=10;fontStyle=0" vertex="1" parent="1">
          <mxGeometry x="190" y="130" width="100" height="50" as="geometry" />
        </mxCell>
        <mxCell id="KTwk-XYR9jKI6FYCV8iE-14" value="Gerenciar Cadastro de Produtos" style="ellipse;whiteSpace=wrap;html=1;fontSize=10;fontStyle=0" vertex="1" parent="1">
          <mxGeometry x="190" y="370" width="100" height="50" as="geometry" />
        </mxCell>
        <mxCell id="KTwk-XYR9jKI6FYCV8iE-15" value="Gerenciar Cadastro de Funcionarios" style="ellipse;whiteSpace=wrap;html=1;fontSize=10;fontStyle=0" vertex="1" parent="1">
          <mxGeometry x="190" y="250" width="100" height="50" as="geometry" />
        </mxCell>
        <mxCell id="KTwk-XYR9jKI6FYCV8iE-16" value="Consultar Relatório de Vendas" style="ellipse;whiteSpace=wrap;html=1;fontSize=10;fontStyle=0" vertex="1" parent="1">
          <mxGeometry x="180" y="570" width="100" height="50" as="geometry" />
        </mxCell>
        <mxCell id="KTwk-XYR9jKI6FYCV8iE-28" value="Venda de Produto" style="ellipse;whiteSpace=wrap;html=1;fontSize=11;fontStyle=0" vertex="1" parent="1">
          <mxGeometry x="380" y="170" width="100" height="50" as="geometry" />
        </mxCell>
        <mxCell id="KTwk-XYR9jKI6FYCV8iE-29" value="Pagamento" style="ellipse;whiteSpace=wrap;html=1;fontSize=12;fontStyle=0" vertex="1" parent="1">
          <mxGeometry x="545" y="240" width="80" height="40" as="geometry" />
        </mxCell>
        <mxCell id="oKkLIn8GN4764wAvx9i3-5" value="Cancelamento" style="ellipse;whiteSpace=wrap;html=1;fontSize=11;fontStyle=0" vertex="1" parent="1">
          <mxGeometry x="545" y="120" width="80" height="40" as="geometry" />
        </mxCell>
        <mxCell id="oKkLIn8GN4764wAvx9i3-42" style="edgeStyle=none;rounded=0;orthogonalLoop=1;jettySize=auto;html=1;exitX=0.5;exitY=0;exitDx=0;exitDy=0;entryX=0.5;entryY=1;entryDx=0;entryDy=0;" edge="1" parent="1" source="oKkLIn8GN4764wAvx9i3-6" target="KTwk-XYR9jKI6FYCV8iE-29">
          <mxGeometry relative="1" as="geometry" />
        </mxCell>
        <mxCell id="oKkLIn8GN4764wAvx9i3-6" value="Dinheiro" style="ellipse;whiteSpace=wrap;html=1;fontSize=14;fontStyle=0" vertex="1" parent="1">
          <mxGeometry x="560" y="340" width="80" height="40" as="geometry" />
        </mxCell>
        <mxCell id="oKkLIn8GN4764wAvx9i3-43" style="edgeStyle=none;rounded=0;orthogonalLoop=1;jettySize=auto;html=1;exitX=0.5;exitY=0;exitDx=0;exitDy=0;entryX=1;entryY=1;entryDx=0;entryDy=0;" edge="1" parent="1" source="oKkLIn8GN4764wAvx9i3-7" target="KTwk-XYR9jKI6FYCV8iE-29">
          <mxGeometry relative="1" as="geometry" />
        </mxCell>
        <mxCell id="oKkLIn8GN4764wAvx9i3-7" value="Cartão" style="ellipse;whiteSpace=wrap;html=1;fontSize=13;fontStyle=0" vertex="1" parent="1">
          <mxGeometry x="660" y="340" width="80" height="40" as="geometry" />
        </mxCell>
        <mxCell id="oKkLIn8GN4764wAvx9i3-41" style="edgeStyle=none;rounded=0;orthogonalLoop=1;jettySize=auto;html=1;exitX=0.5;exitY=0;exitDx=0;exitDy=0;entryX=0;entryY=1;entryDx=0;entryDy=0;" edge="1" parent="1" source="oKkLIn8GN4764wAvx9i3-8" target="KTwk-XYR9jKI6FYCV8iE-29">
          <mxGeometry relative="1" as="geometry" />
        </mxCell>
        <mxCell id="oKkLIn8GN4764wAvx9i3-8" value="Pix" style="ellipse;whiteSpace=wrap;html=1;fontSize=13;fontStyle=0" vertex="1" parent="1">
          <mxGeometry x="460" y="340" width="80" height="40" as="geometry" />
        </mxCell>
        <mxCell id="oKkLIn8GN4764wAvx9i3-50" style="edgeStyle=none;rounded=0;orthogonalLoop=1;jettySize=auto;html=1;exitX=0.5;exitY=0;exitDx=0;exitDy=0;entryX=0.5;entryY=1;entryDx=0;entryDy=0;" edge="1" parent="1" source="oKkLIn8GN4764wAvx9i3-9" target="oKkLIn8GN4764wAvx9i3-7">
          <mxGeometry relative="1" as="geometry" />
        </mxCell>
        <mxCell id="oKkLIn8GN4764wAvx9i3-9" value="A Vista" style="ellipse;whiteSpace=wrap;html=1;fontSize=13;fontStyle=0" vertex="1" parent="1">
          <mxGeometry x="610" y="440" width="80" height="40" as="geometry" />
        </mxCell>
        <mxCell id="oKkLIn8GN4764wAvx9i3-51" style="edgeStyle=none;rounded=0;orthogonalLoop=1;jettySize=auto;html=1;exitX=0.5;exitY=0;exitDx=0;exitDy=0;" edge="1" parent="1" source="oKkLIn8GN4764wAvx9i3-10">
          <mxGeometry relative="1" as="geometry">
            <mxPoint x="700" y="380" as="targetPoint" />
          </mxGeometry>
        </mxCell>
        <mxCell id="oKkLIn8GN4764wAvx9i3-10" value="Parcelado" style="ellipse;whiteSpace=wrap;html=1;fontSize=13;fontStyle=0" vertex="1" parent="1">
          <mxGeometry x="710" y="440" width="80" height="40" as="geometry" />
        </mxCell>
        <mxCell id="oKkLIn8GN4764wAvx9i3-11" value="Baixa no&amp;nbsp;&lt;div&gt;Estoque&lt;/div&gt;" style="ellipse;whiteSpace=wrap;html=1;fontSize=11;fontStyle=0" vertex="1" parent="1">
          <mxGeometry x="690" y="175" width="80" height="40" as="geometry" />
        </mxCell>
        <mxCell id="oKkLIn8GN4764wAvx9i3-12" value="Desconto" style="ellipse;whiteSpace=wrap;html=1;fontSize=13;fontStyle=0" vertex="1" parent="1">
          <mxGeometry x="530" y="540" width="80" height="40" as="geometry" />
        </mxCell>
        <mxCell id="oKkLIn8GN4764wAvx9i3-13" value="Recibo" style="ellipse;whiteSpace=wrap;html=1;fontSize=13;fontStyle=0" vertex="1" parent="1">
          <mxGeometry x="620" y="680" width="80" height="40" as="geometry" />
        </mxCell>
        <mxCell id="oKkLIn8GN4764wAvx9i3-20" value="Controle de Validade" style="ellipse;whiteSpace=wrap;html=1;fontSize=10;fontStyle=0" vertex="1" parent="1">
          <mxGeometry x="370" y="413" width="80" height="40" as="geometry" />
        </mxCell>
        <mxCell id="oKkLIn8GN4764wAvx9i3-21" value="Solicitar Reposiçao" style="ellipse;whiteSpace=wrap;html=1;fontSize=10;fontStyle=0" vertex="1" parent="1">
          <mxGeometry x="370" y="340" width="80" height="40" as="geometry" />
        </mxCell>
        <mxCell id="oKkLIn8GN4764wAvx9i3-22" value="Adicionar/ Remover Produto" style="ellipse;whiteSpace=wrap;html=1;fontSize=9;fontStyle=0" vertex="1" parent="1">
          <mxGeometry x="340" y="480" width="80" height="40" as="geometry" />
        </mxCell>
        <mxCell id="oKkLIn8GN4764wAvx9i3-37" value="&amp;lt;&amp;lt;include&amp;gt;&amp;gt;" style="endArrow=block;dashed=1;endFill=0;endSize=12;html=1;rounded=0;exitX=1;exitY=0.5;exitDx=0;exitDy=0;entryX=0;entryY=0.5;entryDx=0;entryDy=0;" edge="1" parent="1" source="KTwk-XYR9jKI6FYCV8iE-28" target="KTwk-XYR9jKI6FYCV8iE-29">
          <mxGeometry width="160" relative="1" as="geometry">
            <mxPoint x="640" y="420" as="sourcePoint" />
            <mxPoint x="800" y="420" as="targetPoint" />
          </mxGeometry>
        </mxCell>
        <mxCell id="oKkLIn8GN4764wAvx9i3-38" value="&amp;lt;include&amp;gt;" style="endArrow=block;dashed=1;endFill=0;endSize=12;html=1;rounded=0;exitX=1;exitY=0.5;exitDx=0;exitDy=0;entryX=0;entryY=0.5;entryDx=0;entryDy=0;" edge="1" parent="1" source="wCYUpBFyNO2nw9wWK0XW-55" target="KTwk-XYR9jKI6FYCV8iE-28">
          <mxGeometry x="-0.2165" y="12" width="160" relative="1" as="geometry">
            <mxPoint x="540" y="240" as="sourcePoint" />
            <mxPoint x="635" y="315" as="targetPoint" />
            <mxPoint x="-1" as="offset" />
          </mxGeometry>
        </mxCell>
        <mxCell id="oKkLIn8GN4764wAvx9i3-39" value="&amp;lt;&amp;lt;extends&amp;gt;&amp;gt;" style="endArrow=block;dashed=1;endFill=0;endSize=12;html=1;rounded=0;exitX=0.5;exitY=1;exitDx=0;exitDy=0;entryX=0.5;entryY=0;entryDx=0;entryDy=0;" edge="1" parent="1" source="oKkLIn8GN4764wAvx9i3-5" target="KTwk-XYR9jKI6FYCV8iE-29">
          <mxGeometry width="160" relative="1" as="geometry">
            <mxPoint x="540" y="290" as="sourcePoint" />
            <mxPoint x="635" y="365" as="targetPoint" />
          </mxGeometry>
        </mxCell>
        <mxCell id="oKkLIn8GN4764wAvx9i3-40" value="&amp;lt;&amp;lt;include&amp;gt;&amp;gt;" style="endArrow=block;dashed=1;endFill=0;endSize=12;html=1;rounded=0;exitX=1;exitY=0.5;exitDx=0;exitDy=0;entryX=0;entryY=0.5;entryDx=0;entryDy=0;" edge="1" parent="1" source="KTwk-XYR9jKI6FYCV8iE-29" target="oKkLIn8GN4764wAvx9i3-11">
          <mxGeometry width="160" relative="1" as="geometry">
            <mxPoint x="680" y="300" as="sourcePoint" />
            <mxPoint x="775" y="375" as="targetPoint" />
          </mxGeometry>
        </mxCell>
        <mxCell id="oKkLIn8GN4764wAvx9i3-44" value="&amp;lt;&amp;lt;include&amp;gt;&amp;gt;&lt;div&gt;&lt;br&gt;&lt;/div&gt;" style="endArrow=block;dashed=1;endFill=0;endSize=12;html=1;rounded=0;exitX=0.5;exitY=1;exitDx=0;exitDy=0;entryX=0.5;entryY=0;entryDx=0;entryDy=0;" edge="1" parent="1" source="oKkLIn8GN4764wAvx9i3-6" target="oKkLIn8GN4764wAvx9i3-12">
          <mxGeometry x="-0.4985" y="-1" width="160" relative="1" as="geometry">
            <mxPoint x="700" y="470" as="sourcePoint" />
            <mxPoint x="795" y="545" as="targetPoint" />
            <mxPoint as="offset" />
          </mxGeometry>
        </mxCell>
        <mxCell id="oKkLIn8GN4764wAvx9i3-45" value="&amp;lt;&amp;lt;include&amp;gt;&amp;gt;" style="endArrow=block;dashed=1;endFill=0;endSize=12;html=1;rounded=0;exitX=0.5;exitY=1;exitDx=0;exitDy=0;entryX=0;entryY=0;entryDx=0;entryDy=0;" edge="1" parent="1" source="oKkLIn8GN4764wAvx9i3-8" target="oKkLIn8GN4764wAvx9i3-12">
          <mxGeometry width="160" relative="1" as="geometry">
            <mxPoint x="530" y="440" as="sourcePoint" />
            <mxPoint x="625" y="515" as="targetPoint" />
          </mxGeometry>
        </mxCell>
        <mxCell id="oKkLIn8GN4764wAvx9i3-47" value="&amp;lt;&amp;lt;include&amp;gt;&amp;gt;" style="endArrow=block;dashed=1;endFill=0;endSize=12;html=1;rounded=0;exitX=0.5;exitY=1;exitDx=0;exitDy=0;" edge="1" parent="1" source="oKkLIn8GN4764wAvx9i3-9" target="oKkLIn8GN4764wAvx9i3-13">
          <mxGeometry width="160" relative="1" as="geometry">
            <mxPoint x="700" y="600" as="sourcePoint" />
            <mxPoint x="795" y="675" as="targetPoint" />
          </mxGeometry>
        </mxCell>
        <mxCell id="oKkLIn8GN4764wAvx9i3-48" value="&amp;lt;&amp;lt;include&amp;gt;&amp;gt;" style="endArrow=block;dashed=1;endFill=0;endSize=12;html=1;rounded=0;exitX=0.5;exitY=1;exitDx=0;exitDy=0;entryX=0;entryY=0;entryDx=0;entryDy=0;" edge="1" parent="1" source="oKkLIn8GN4764wAvx9i3-12" target="oKkLIn8GN4764wAvx9i3-13">
          <mxGeometry width="160" relative="1" as="geometry">
            <mxPoint x="600" y="640" as="sourcePoint" />
            <mxPoint x="695" y="715" as="targetPoint" />
          </mxGeometry>
        </mxCell>
        <mxCell id="oKkLIn8GN4764wAvx9i3-49" value="&amp;lt;&amp;lt;include&amp;gt;&amp;gt;" style="endArrow=block;dashed=1;endFill=0;endSize=12;html=1;rounded=0;exitX=0.5;exitY=1;exitDx=0;exitDy=0;entryX=0.738;entryY=0.15;entryDx=0;entryDy=0;entryPerimeter=0;" edge="1" parent="1" source="oKkLIn8GN4764wAvx9i3-10" target="oKkLIn8GN4764wAvx9i3-13">
          <mxGeometry x="-0.3601" y="3" width="160" relative="1" as="geometry">
            <mxPoint x="780" y="640" as="sourcePoint" />
            <mxPoint x="875" y="715" as="targetPoint" />
            <mxPoint as="offset" />
          </mxGeometry>
        </mxCell>
        <mxCell id="oKkLIn8GN4764wAvx9i3-53" value="&amp;lt;&amp;lt;extends&amp;gt;&amp;gt;" style="endArrow=block;dashed=1;endFill=0;endSize=12;html=1;rounded=0;exitX=0;exitY=0.5;exitDx=0;exitDy=0;entryX=1;entryY=1;entryDx=0;entryDy=0;" edge="1" parent="1" source="oKkLIn8GN4764wAvx9i3-22" target="KTwk-XYR9jKI6FYCV8iE-14">
          <mxGeometry width="160" relative="1" as="geometry">
            <mxPoint x="360" y="580" as="sourcePoint" />
            <mxPoint x="412" y="746" as="targetPoint" />
          </mxGeometry>
        </mxCell>
        <mxCell id="oKkLIn8GN4764wAvx9i3-54" value="&amp;lt;&amp;lt;extends&amp;gt;&amp;gt;" style="endArrow=block;dashed=1;endFill=0;endSize=12;html=1;rounded=0;exitX=0;exitY=0.5;exitDx=0;exitDy=0;entryX=1;entryY=0.5;entryDx=0;entryDy=0;" edge="1" parent="1" source="oKkLIn8GN4764wAvx9i3-20" target="KTwk-XYR9jKI6FYCV8iE-14">
          <mxGeometry x="-0.1652" y="-8" width="160" relative="1" as="geometry">
            <mxPoint x="420" y="450" as="sourcePoint" />
            <mxPoint x="472" y="616" as="targetPoint" />
            <mxPoint as="offset" />
          </mxGeometry>
        </mxCell>
        <mxCell id="oKkLIn8GN4764wAvx9i3-55" value="&amp;lt;&amp;lt;extends&amp;gt;&amp;gt;" style="endArrow=block;dashed=1;endFill=0;endSize=12;html=1;rounded=0;exitX=0;exitY=0.5;exitDx=0;exitDy=0;entryX=0.95;entryY=0.26;entryDx=0;entryDy=0;entryPerimeter=0;" edge="1" parent="1" source="oKkLIn8GN4764wAvx9i3-21" target="KTwk-XYR9jKI6FYCV8iE-14">
          <mxGeometry x="0.0938" y="-13" width="160" relative="1" as="geometry">
            <mxPoint x="310" y="370" as="sourcePoint" />
            <mxPoint x="362" y="536" as="targetPoint" />
            <mxPoint as="offset" />
          </mxGeometry>
        </mxCell>
      </root>
    </mxGraphModel>
  </diagram>
</mxfile>
